# xmcd
#
# Track frame offsets:
#	150
#	39571
#	60020
#	76323
#	94445
#	114510
#	134795
#	152963
#	173784
#	194983
#	216206
#	237282
#
# Disc length: 3437 seconds
#
# Revision: 4
# Processed by: cddbd v1.5.2PL0 Copyright (c) Steve Scherf et al.
# Submitted via: EasyCDDAExtractor 15.3.0.1
#
DISCID=ad0d6b0c
DTITLE=Varios Artistas - Merengue Mix 2
DYEAR=1995
DGENRE=Latin
TTITLE0=Merengue Mix 2 - Megamix Version
TTITLE1=Bonny Cepeda - Algo Le Di Yo
TTITLE2=DJ' Negro - Apechao
TTITLE3=Los Kenton - El Celoso
TTITLE4=Rikarena - El Merengue Riko
TTITLE5=Caña Brava - Cumande
TTITLE6=Merengue Mix 2 - Radio Edit
TTITLE7=Cesar Flores - Salvaje
TTITLE8=Fernando Villalona - Corazon Salvaje
TTITLE9=Rokabanda - Los Hombres Maduros
TTITLE10=Zafra Negra - Lo Que No Conviene
TTITLE11=Zona Roja - Que Dia Es Hoy
EXTD=
EXTT0=
EXTT1=
EXTT2=
EXTT3=
EXTT4=
EXTT5=
EXTT6=
EXTT7=
EXTT8=
EXTT9=
EXTT10=
EXTT11=
PLAYORDER=
